<svg xmlns="http://www.w3.org/2000/svg" viewBox="0 0 64 64" width="64" height="64">
  <defs>
    <linearGradient id="grad" x1="0%" y1="0%" x2="100%" y2="100%">
      <stop offset="0%" stop-color="#0D4234" />
      <stop offset="100%" stop-color="#03224d" />
    </linearGradient>
  </defs>
  <rect width="64" height="64" rx="16" fill="url(#grad)"/>
  <rect x="3" y="3" width="58" height="58" rx="13" fill="none" stroke="#E0701B" stroke-width="2" opacity="0.8"/>
  <!-- School Crest Book & Star -->
  <path d="M18 42 C 24 38, 30 38, 32 40 C 34 38, 40 38, 46 42 L 46 25 C 40 22, 34 22, 32 24 C 30 22, 24 22, 18 25 Z" fill="#FEF08A"/>
  <path d="M32 24 L 32 40" stroke="#0D4234" stroke-width="2"/>
  <!-- Graduation Cap Star -->
  <polygon points="32,11 35,17 41,18 37,22 38,28 32,25 26,28 27,22 23,18 29,17" fill="#E0701B"/>
</svg>
